<svg width="22" height="17" viewBox="0 0 22 17" fill="none" xmlns="http://www.w3.org/2000/svg">
<path d="M4.21168 1.1461C4.64126 0.716527 5.33774 0.716527 5.76732 1.1461L18.3538 13.7326C18.7834 14.1622 18.7834 14.8587 18.3538 15.2882L17.7881 15.8539C17.3586 16.2835 16.6621 16.2835 16.2325 15.8539L3.646 3.26742C3.21642 2.83785 3.21642 2.14137 3.646 1.71179L4.21168 1.1461Z" fill="white"/>
<path d="M3.64598 15.2882C3.2164 14.8586 3.2164 14.1622 3.64598 13.7326L16.2325 1.14609C16.6621 0.716512 17.3585 0.716512 17.7881 1.14609L18.3538 1.71177C18.7834 2.14135 18.7834 2.83783 18.3538 3.26741L5.7673 15.8539C5.33773 16.2835 4.64124 16.2835 4.21167 15.8539L3.64598 15.2882Z" fill="white"/>
</svg>
