<svg width="22" height="17" viewBox="0 0 22 17" fill="none" xmlns="http://www.w3.org/2000/svg">
<path d="M1 8.1C1 7.49249 1.49249 7 2.1 7H19.9C20.5075 7 21 7.49249 21 8.1V8.9C21 9.50751 20.5075 10 19.9 10H2.1C1.49249 10 1 9.50751 1 8.9V8.1Z" fill="white"/>
<path d="M1 13.1C1 12.4925 1.49249 12 2.1 12H19.9C20.5075 12 21 12.4925 21 13.1V13.9C21 14.5075 20.5075 15 19.9 15H2.1C1.49249 15 1 14.5075 1 13.9V13.1Z" fill="white"/>
<path d="M1 3.1C1 2.49249 1.49249 2 2.1 2H19.9C20.5075 2 21 2.49249 21 3.1V3.9C21 4.50751 20.5075 5 19.9 5H2.1C1.49249 5 1 4.50751 1 3.9V3.1Z" fill="white"/>
</svg>
