<svg width="20" height="20" viewBox="0 0 20 20" fill="none" xmlns="http://www.w3.org/2000/svg">
<path d="M10 4.99999C9.77901 4.99999 9.56705 5.08779 9.41077 5.24407C9.25449 5.40035 9.16669 5.61231 9.16669 5.83332V14.1667C9.16669 14.3877 9.25449 14.5996 9.41077 14.7559C9.56705 14.9122 9.77901 15 10 15C10.221 15 10.433 14.9122 10.5893 14.7559C10.7456 14.5996 10.8334 14.3877 10.8334 14.1667V5.83332C10.8334 5.61231 10.7456 5.40035 10.5893 5.24407C10.433 5.08779 10.221 4.99999 10 4.99999ZM5.83335 9.99999C5.61234 9.99999 5.40038 10.0878 5.2441 10.2441C5.08782 10.4003 5.00002 10.6123 5.00002 10.8333V14.1667C5.00002 14.3877 5.08782 14.5996 5.2441 14.7559C5.40038 14.9122 5.61234 15 5.83335 15C6.05437 15 6.26633 14.9122 6.42261 14.7559C6.57889 14.5996 6.66669 14.3877 6.66669 14.1667V10.8333C6.66669 10.6123 6.57889 10.4003 6.42261 10.2441C6.26633 10.0878 6.05437 9.99999 5.83335 9.99999ZM14.1667 8.33332C13.9457 8.33332 13.7337 8.42112 13.5774 8.5774C13.4212 8.73368 13.3334 8.94564 13.3334 9.16666V14.1667C13.3334 14.3877 13.4212 14.5996 13.5774 14.7559C13.7337 14.9122 13.9457 15 14.1667 15C14.3877 15 14.5997 14.9122 14.7559 14.7559C14.9122 14.5996 15 14.3877 15 14.1667V9.16666C15 8.94564 14.9122 8.73368 14.7559 8.5774C14.5997 8.42112 14.3877 8.33332 14.1667 8.33332ZM15.8334 1.66666H4.16669C3.50365 1.66666 2.86776 1.93005 2.39892 2.39889C1.93008 2.86773 1.66669 3.50362 1.66669 4.16666V15.8333C1.66669 16.4964 1.93008 17.1322 2.39892 17.6011C2.86776 18.0699 3.50365 18.3333 4.16669 18.3333H15.8334C16.4964 18.3333 17.1323 18.0699 17.6011 17.6011C18.07 17.1322 18.3334 16.4964 18.3334 15.8333V4.16666C18.3334 3.50362 18.07 2.86773 17.6011 2.39889C17.1323 1.93005 16.4964 1.66666 15.8334 1.66666ZM16.6667 15.8333C16.6667 16.0543 16.5789 16.2663 16.4226 16.4226C16.2663 16.5789 16.0544 16.6667 15.8334 16.6667H4.16669C3.94567 16.6667 3.73371 16.5789 3.57743 16.4226C3.42115 16.2663 3.33335 16.0543 3.33335 15.8333V4.16666C3.33335 3.94564 3.42115 3.73368 3.57743 3.5774C3.73371 3.42112 3.94567 3.33332 4.16669 3.33332H15.8334C16.0544 3.33332 16.2663 3.42112 16.4226 3.5774C16.5789 3.73368 16.6667 3.94564 16.6667 4.16666V15.8333Z" fill="#0C1427"/>
</svg>
