<svg width="20" height="20" viewBox="0 0 20 20" fill="none" xmlns="http://www.w3.org/2000/svg">
<path d="M12.5 11.6667H7.49998C7.27897 11.6667 7.067 11.7545 6.91072 11.9107C6.75444 12.067 6.66665 12.279 6.66665 12.5C6.66665 12.721 6.75444 12.933 6.91072 13.0892C7.067 13.2455 7.27897 13.3333 7.49998 13.3333H12.5C12.721 13.3333 12.933 13.2455 13.0892 13.0892C13.2455 12.933 13.3333 12.721 13.3333 12.5C13.3333 12.279 13.2455 12.067 13.0892 11.9107C12.933 11.7545 12.721 11.6667 12.5 11.6667ZM12.5 8.33332H9.16665C8.94563 8.33332 8.73367 8.42112 8.57739 8.5774C8.42111 8.73368 8.33331 8.94564 8.33331 9.16666C8.33331 9.38767 8.42111 9.59963 8.57739 9.75591C8.73367 9.91219 8.94563 9.99999 9.16665 9.99999H12.5C12.721 9.99999 12.933 9.91219 13.0892 9.75591C13.2455 9.59963 13.3333 9.38767 13.3333 9.16666C13.3333 8.94564 13.2455 8.73368 13.0892 8.5774C12.933 8.42112 12.721 8.33332 12.5 8.33332ZM14.1666 3.33332H13.1833C13.0114 2.84703 12.6933 2.42582 12.2725 2.12744C11.8518 1.82906 11.3491 1.66811 10.8333 1.66666H9.16665C8.65086 1.66811 8.14815 1.82906 7.72743 2.12744C7.3067 2.42582 6.98857 2.84703 6.81665 3.33332H5.83331C5.17027 3.33332 4.53439 3.59672 4.06555 4.06556C3.59671 4.5344 3.33331 5.17028 3.33331 5.83332V15.8333C3.33331 16.4964 3.59671 17.1322 4.06555 17.6011C4.53439 18.0699 5.17027 18.3333 5.83331 18.3333H14.1666C14.8297 18.3333 15.4656 18.0699 15.9344 17.6011C16.4033 17.1322 16.6666 16.4964 16.6666 15.8333V5.83332C16.6666 5.17028 16.4033 4.5344 15.9344 4.06556C15.4656 3.59672 14.8297 3.33332 14.1666 3.33332ZM8.33331 4.16666C8.33331 3.94564 8.42111 3.73368 8.57739 3.5774C8.73367 3.42112 8.94563 3.33332 9.16665 3.33332H10.8333C11.0543 3.33332 11.2663 3.42112 11.4226 3.5774C11.5788 3.73368 11.6666 3.94564 11.6666 4.16666V4.99999H8.33331V4.16666ZM15 15.8333C15 16.0543 14.9122 16.2663 14.7559 16.4226C14.5996 16.5789 14.3877 16.6667 14.1666 16.6667H5.83331C5.6123 16.6667 5.40034 16.5789 5.24406 16.4226C5.08778 16.2663 4.99998 16.0543 4.99998 15.8333V5.83332C4.99998 5.61231 5.08778 5.40035 5.24406 5.24407C5.40034 5.08779 5.6123 4.99999 5.83331 4.99999H6.66665V5.83332C6.66665 6.05434 6.75444 6.2663 6.91072 6.42258C7.067 6.57886 7.27897 6.66666 7.49998 6.66666H12.5C12.721 6.66666 12.933 6.57886 13.0892 6.42258C13.2455 6.2663 13.3333 6.05434 13.3333 5.83332V4.99999H14.1666C14.3877 4.99999 14.5996 5.08779 14.7559 5.24407C14.9122 5.40035 15 5.61231 15 5.83332V15.8333Z" fill="#0C1427"/>
</svg>
