<svg width="20" height="20" viewBox="0 0 20 20" fill="none" xmlns="http://www.w3.org/2000/svg">
<path d="M10 16.6667H4.16669C3.94567 16.6667 3.73371 16.5789 3.57743 16.4226C3.42115 16.2663 3.33335 16.0544 3.33335 15.8333V4.16667C3.33335 3.94566 3.42115 3.7337 3.57743 3.57742C3.73371 3.42114 3.94567 3.33334 4.16669 3.33334H8.33335V5.83334C8.33335 6.49638 8.59675 7.13227 9.06559 7.60111C9.53443 8.06995 10.1703 8.33334 10.8334 8.33334H13.3334V9.16667C13.3334 9.38769 13.4212 9.59965 13.5774 9.75593C13.7337 9.91221 13.9457 10 14.1667 10C14.3877 10 14.5997 9.91221 14.7559 9.75593C14.9122 9.59965 15 9.38769 15 9.16667V7.50001C15 7.50001 15 7.50001 15 7.45001C14.9913 7.37345 14.9746 7.29803 14.95 7.22501V7.15001C14.91 7.06432 14.8565 6.98556 14.7917 6.91667L9.79169 1.91667C9.7228 1.85185 9.64404 1.79841 9.55835 1.75834C9.53348 1.75481 9.50823 1.75481 9.48335 1.75834C9.3987 1.70979 9.30521 1.67863 9.20835 1.66667H4.16669C3.50365 1.66667 2.86776 1.93006 2.39892 2.3989C1.93008 2.86775 1.66669 3.50363 1.66669 4.16667V15.8333C1.66669 16.4964 1.93008 17.1323 2.39892 17.6011C2.86776 18.0699 3.50365 18.3333 4.16669 18.3333H10C10.221 18.3333 10.433 18.2455 10.5893 18.0893C10.7456 17.933 10.8334 17.721 10.8334 17.5C10.8334 17.279 10.7456 17.067 10.5893 16.9107C10.433 16.7545 10.221 16.6667 10 16.6667ZM10 4.50834L12.1584 6.66667H10.8334C10.6123 6.66667 10.4004 6.57887 10.2441 6.42259C10.0878 6.26631 10 6.05435 10 5.83334V4.50834ZM5.83335 6.66667C5.61234 6.66667 5.40038 6.75447 5.2441 6.91075C5.08782 7.06703 5.00002 7.27899 5.00002 7.50001C5.00002 7.72102 5.08782 7.93298 5.2441 8.08926C5.40038 8.24554 5.61234 8.33334 5.83335 8.33334H6.66669C6.8877 8.33334 7.09966 8.24554 7.25594 8.08926C7.41222 7.93298 7.50002 7.72102 7.50002 7.50001C7.50002 7.27899 7.41222 7.06703 7.25594 6.91075C7.09966 6.75447 6.8877 6.66667 6.66669 6.66667H5.83335ZM18.0917 16.9083L17.1167 15.9417C17.4283 15.3977 17.5531 14.7666 17.4718 14.145C17.3905 13.5234 17.1077 12.9456 16.6667 12.5C16.2609 12.0797 15.7379 11.7914 15.1659 11.6726C14.5939 11.5538 13.9993 11.6101 13.4597 11.834C12.9201 12.0579 12.4605 12.4392 12.1407 12.9281C11.8208 13.417 11.6557 13.9909 11.6667 14.575C11.6638 15.0777 11.7924 15.5723 12.0397 16.01C12.287 16.4476 12.6444 16.813 13.0765 17.0698C13.5085 17.3267 14.0003 17.4662 14.5028 17.4744C15.0054 17.4826 15.5015 17.3593 15.9417 17.1167L16.9084 18.0917C16.9858 18.1698 17.078 18.2318 17.1795 18.2741C17.2811 18.3164 17.39 18.3382 17.5 18.3382C17.61 18.3382 17.719 18.3164 17.8205 18.2741C17.9221 18.2318 18.0142 18.1698 18.0917 18.0917C18.1698 18.0142 18.2318 17.922 18.2741 17.8205C18.3164 17.7189 18.3382 17.61 18.3382 17.5C18.3382 17.39 18.3164 17.2811 18.2741 17.1795C18.2318 17.078 18.1698 16.9858 18.0917 16.9083ZM15.45 15.45C15.212 15.6738 14.8976 15.7985 14.5709 15.7985C14.2441 15.7985 13.9297 15.6738 13.6917 15.45C13.4623 15.2165 13.3336 14.9023 13.3334 14.575C13.3316 14.4106 13.3632 14.2476 13.4263 14.0958C13.4893 13.944 13.5824 13.8065 13.7 13.6917C13.9222 13.4707 14.2201 13.3426 14.5334 13.3333C14.7018 13.323 14.8706 13.3476 15.0292 13.4055C15.1877 13.4635 15.3325 13.5536 15.4546 13.6702C15.5767 13.7868 15.6733 13.9273 15.7385 14.083C15.8037 14.2387 15.836 14.4062 15.8334 14.575C15.8265 14.9059 15.6886 15.2206 15.45 15.45ZM10.8334 10H5.83335C5.61234 10 5.40038 10.0878 5.2441 10.2441C5.08782 10.4004 5.00002 10.6123 5.00002 10.8333C5.00002 11.0544 5.08782 11.2663 5.2441 11.4226C5.40038 11.5789 5.61234 11.6667 5.83335 11.6667H10.8334C11.0544 11.6667 11.2663 11.5789 11.4226 11.4226C11.5789 11.2663 11.6667 11.0544 11.6667 10.8333C11.6667 10.6123 11.5789 10.4004 11.4226 10.2441C11.2663 10.0878 11.0544 10 10.8334 10ZM9.16669 15C9.3877 15 9.59966 14.9122 9.75594 14.7559C9.91222 14.5996 10 14.3877 10 14.1667C10 13.9457 9.91222 13.7337 9.75594 13.5774C9.59966 13.4211 9.3877 13.3333 9.16669 13.3333H5.83335C5.61234 13.3333 5.40038 13.4211 5.2441 13.5774C5.08782 13.7337 5.00002 13.9457 5.00002 14.1667C5.00002 14.3877 5.08782 14.5996 5.2441 14.7559C5.40038 14.9122 5.61234 15 5.83335 15H9.16669Z" fill="#0C1427"/>
</svg>
