<svg width="20" height="20" viewBox="0 0 20 20" fill="none" xmlns="http://www.w3.org/2000/svg">
<path d="M11.0833 10.1833C11.528 9.79844 11.8846 9.32239 12.1291 8.78751C12.3735 8.25262 12.5 7.67141 12.5 7.08332C12.5 5.97825 12.061 4.91845 11.2796 4.13705C10.4982 3.35564 9.43839 2.91666 8.33332 2.91666C7.22825 2.91666 6.16845 3.35564 5.38705 4.13705C4.60564 4.91845 4.16666 5.97825 4.16666 7.08332C4.16665 7.67141 4.29316 8.25262 4.53759 8.78751C4.78203 9.32239 5.13868 9.79844 5.58332 10.1833C4.41677 10.7116 3.42704 11.5646 2.73247 12.6404C2.0379 13.7163 1.66788 14.9694 1.66666 16.25C1.66666 16.471 1.75445 16.683 1.91073 16.8392C2.06701 16.9955 2.27898 17.0833 2.49999 17.0833C2.721 17.0833 2.93297 16.9955 3.08925 16.8392C3.24553 16.683 3.33332 16.471 3.33332 16.25C3.33332 14.9239 3.86011 13.6521 4.79779 12.7145C5.73547 11.7768 7.00724 11.25 8.33332 11.25C9.65941 11.25 10.9312 11.7768 11.8689 12.7145C12.8065 13.6521 13.3333 14.9239 13.3333 16.25C13.3333 16.471 13.4211 16.683 13.5774 16.8392C13.7337 16.9955 13.9456 17.0833 14.1667 17.0833C14.3877 17.0833 14.5996 16.9955 14.7559 16.8392C14.9122 16.683 15 16.471 15 16.25C14.9988 14.9694 14.6287 13.7163 13.9342 12.6404C13.2396 11.5646 12.2499 10.7116 11.0833 10.1833ZM8.33332 9.58332C7.83887 9.58332 7.35552 9.4367 6.9444 9.162C6.53327 8.88729 6.21284 8.49685 6.02362 8.04003C5.83441 7.58322 5.7849 7.08055 5.88136 6.5956C5.97782 6.11065 6.21593 5.66519 6.56556 5.31556C6.91519 4.96593 7.36065 4.72782 7.8456 4.63136C8.33055 4.5349 8.83322 4.58441 9.29003 4.77362C9.74685 4.96284 10.1373 5.28327 10.412 5.6944C10.6867 6.10552 10.8333 6.58887 10.8333 7.08332C10.8333 7.74637 10.5699 8.38225 10.1011 8.85109C9.63225 9.31993 8.99636 9.58332 8.33332 9.58332ZM18.0917 7.60832C18.0142 7.53022 17.922 7.46822 17.8205 7.42591C17.7189 7.38361 17.61 7.36182 17.5 7.36182C17.39 7.36182 17.2811 7.38361 17.1795 7.42591C17.078 7.46822 16.9858 7.53022 16.9083 7.60832L15.2417 9.27499L14.725 8.74999C14.6475 8.67188 14.5554 8.60989 14.4538 8.56758C14.3523 8.52527 14.2433 8.50349 14.1333 8.50349C14.0233 8.50349 13.9144 8.52527 13.8128 8.56758C13.7113 8.60989 13.6191 8.67188 13.5417 8.74999C13.3864 8.90613 13.2993 9.11734 13.2993 9.33749C13.2993 9.55765 13.3864 9.76886 13.5417 9.92499L14.6583 11.0417C14.8145 11.1969 15.0257 11.284 15.2458 11.284C15.466 11.284 15.6772 11.1969 15.8333 11.0417L18.0583 8.81666C18.1425 8.74109 18.2103 8.64919 18.2578 8.54656C18.3053 8.44392 18.3314 8.33269 18.3345 8.21965C18.3376 8.10661 18.3177 7.99411 18.276 7.88901C18.2342 7.78391 18.1715 7.68841 18.0917 7.60832Z" fill="#0C1427"/>
</svg>
