<svg width="20" height="20" viewBox="0 0 20 20" fill="none" xmlns="http://www.w3.org/2000/svg">
<path d="M18.0917 12.9833L14.325 9.225C14.4038 8.84115 14.4429 8.4502 14.4417 8.05834C14.4414 6.98388 14.1702 5.92684 13.6533 4.98491C13.1363 4.04298 12.3903 3.24657 11.4841 2.66929C10.5779 2.09201 9.54078 1.75249 8.46863 1.68212C7.39648 1.61175 6.32389 1.81279 5.35 2.26667C5.22662 2.32304 5.11885 2.40867 5.03608 2.51614C4.9533 2.6236 4.89801 2.74965 4.875 2.88334C4.85209 3.01533 4.86133 3.15089 4.90195 3.27855C4.94257 3.40621 5.01336 3.52219 5.10834 3.61667L8.73334 7.23334L7.23334 8.73334L3.61667 5.10834C3.52139 5.01484 3.40505 4.9456 3.27743 4.90644C3.14981 4.86729 3.01465 4.85936 2.88334 4.88334C2.75049 4.9055 2.62499 4.95953 2.51759 5.04081C2.41019 5.12208 2.32409 5.22818 2.26667 5.35C1.81127 6.32709 1.6104 7.40349 1.68274 8.47906C1.75509 9.55463 2.09829 10.5944 2.68043 11.5017C3.26257 12.409 4.06473 13.1544 5.01229 13.6684C5.95985 14.1824 7.02202 14.4484 8.1 14.4417C8.49186 14.4429 8.88281 14.4038 9.26667 14.325L13.025 18.0917C13.1025 18.1698 13.1946 18.2318 13.2962 18.2741C13.3977 18.3164 13.5067 18.3382 13.6167 18.3382C13.7267 18.3382 13.8356 18.3164 13.9372 18.2741C14.0387 18.2318 14.1309 18.1698 14.2083 18.0917C14.2864 18.0142 14.3484 17.922 14.3907 17.8205C14.4331 17.7189 14.4548 17.61 14.4548 17.5C14.4548 17.39 14.4331 17.2811 14.3907 17.1795C14.3484 17.078 14.2864 16.9858 14.2083 16.9083L10.125 12.825C10.023 12.7236 9.89642 12.6504 9.75769 12.6124C9.61897 12.5745 9.47277 12.5731 9.33334 12.6083C8.93098 12.7161 8.51653 12.7721 8.1 12.775C7.47671 12.7805 6.85849 12.6626 6.28095 12.4282C5.70342 12.1937 5.17798 11.8473 4.73491 11.4088C4.29184 10.9704 3.9399 10.4487 3.69935 9.87363C3.4588 9.2986 3.33441 8.68165 3.33334 8.05834C3.33226 7.77919 3.35456 7.50043 3.4 7.225L6.66667 10.5C6.74414 10.5781 6.83631 10.6401 6.93785 10.6824C7.0394 10.7247 7.14833 10.7465 7.25834 10.7465C7.36835 10.7465 7.47727 10.7247 7.57882 10.6824C7.68037 10.6401 7.77253 10.5781 7.85 10.5L10.5 7.825C10.6502 7.66962 10.7342 7.46195 10.7342 7.24584C10.7342 7.02972 10.6502 6.82206 10.5 6.66667L7.25834 3.4C7.53382 3.35501 7.81253 3.33272 8.09167 3.33334C9.34337 3.33555 10.5431 3.83433 11.4274 4.7202C12.3117 5.60607 12.8083 6.80663 12.8083 8.05834C12.8054 8.47486 12.7494 8.88931 12.6417 9.29167C12.6064 9.43111 12.6078 9.5773 12.6458 9.71603C12.6837 9.85476 12.757 9.9813 12.8583 10.0833L16.9417 14.1667C17.0986 14.3236 17.3114 14.4117 17.5333 14.4117C17.7553 14.4117 17.9681 14.3236 18.125 14.1667C18.2819 14.0098 18.3701 13.7969 18.3701 13.575C18.3701 13.3531 18.2819 13.1403 18.125 12.9833H18.0917Z" fill="#0C1427"/>
</svg>
